<svg xmlns="http://www.w3.org/2000/svg" aria-hidden="true" style="position:absolute;width:0;height:0;overflow:hidden">
  <defs>
    <symbol id="icon-apliances" viewBox="0 0 31 32">
      <path fill="#fff" d="M23.909 2H7.291c-.616 0-1.117.501-1.117 1.117v16.619c0 .616.501 1.116 1.117 1.116h.541v.845c0 .167.136.303.303.303h2.638a.303.303 0 0 0 .303-.303v-.845h9.047v.845c0 .167.136.303.303.303h2.638a.303.303 0 0 0 .303-.303v-.845h.541c.616 0 1.117-.501 1.117-1.116V3.117A1.117 1.117 0 0 0 23.909 2zm-16.618.606h16.618c.281 0 .511.229.511.511v3.028H6.78V3.117c0-.282.229-.511.511-.511zm3.179 18.788H8.438v-.542h2.033v.542zm12.292 0h-2.033v-.542h2.033v.542zm1.147-1.148H7.291a.511.511 0 0 1-.511-.51V6.751h17.64v12.985c0 .281-.23.51-.511.51z" style="fill:var(--color1, #fff)"/>
      <path fill="#fff" d="M20.426 5.594c.672 0 1.219-.547 1.219-1.219s-.547-1.219-1.219-1.219-1.219.547-1.219 1.219.547 1.219 1.219 1.219zm0-1.831a.614.614 0 1 1-.001 1.227.614.614 0 0 1 .001-1.227zM15.6 5.594a1.22 1.22 0 0 0 0-2.438c-.672 0-1.219.547-1.219 1.219s.547 1.219 1.219 1.219zm0-1.831a.614.614 0 1 1-.001 1.227.614.614 0 0 1 .001-1.227zm-4.827 1.831a1.22 1.22 0 0 0 0-2.438c-.672 0-1.219.547-1.219 1.219s.547 1.219 1.219 1.219zm0-1.831a.614.614 0 1 1-.001 1.227.614.614 0 0 1 .001-1.227zM22.22 10.58H8.981a.303.303 0 0 0-.303.303v7.377c0 .168.136.303.303.303H22.22a.303.303 0 0 0 .303-.303v-7.377a.303.303 0 0 0-.303-.303zm-.303 7.377H9.284v-6.771h12.633v6.771z" style="fill:var(--color1, #fff)"/>
    </symbol>
    <symbol id="icon-hamburger" viewBox="0 0 32 32">
      <path d="M6.4 11.733V9.6h19.2v2.133H6.4zm0 5.334h19.2v-2.133H6.4v2.133zm0 5.333h19.2v-2.133H6.4V22.4z"/>
    </symbol>
    <symbol id="icon-hamburger-inner" viewBox="0 0 32 32">
      <path d="M23.733 10.304 22.229 8.8l-5.963 5.963L10.303 8.8l-1.504 1.504 5.963 5.963-5.963 5.963 1.504 1.504 5.963-5.963 5.963 5.963 1.504-1.504-5.963-5.963 5.963-5.963z"/>
    </symbol>
    <symbol id="icon-design" viewBox="0 0 29 32">
      <path fill="#fff" d="M20.294 5.538a3.474 3.474 0 0 0-3.288-3.537c-.599 0-1.184.178-1.681.512a4.362 4.362 0 0 0-2.044-.512 4.818 4.818 0 0 0-4.462 3.437 3.568 3.568 0 0 0-2.544 3.544 3.487 3.487 0 0 0 3.288 3.644h1.894L9.232 16.67a.222.222 0 0 0-.031.112.11.11 0 0 0-.006.044l-.256 2.563v.025l-.213 2.119a.304.304 0 0 0 .162.3.322.322 0 0 0 .343-.025l1.687-1.319 2.025-1.588a.246.246 0 0 0 .119-.119l3.394-6.156h2.781a3.487 3.487 0 0 0 3.288-3.644 3.628 3.628 0 0 0-2.231-3.443zm-8.119 7.087H13.6L11.025 17.3l-1.094-.6 2.244-4.075zm-2.756 8.238.106-1.09c.283.07.543.214.754.417l-.86.673zm1.356-1.063-.006.005a2.277 2.277 0 0 0-1.181-.652v-.009l.181-1.825 1.213.675c.006 0 .006.006.012.006s.006.006.013.006l1.212.669-1.444 1.125zm1.894-1.594h-.006l-1.088-.606 2.738-4.975h1.425l-3.069 5.581zM19.237 12H9.562a2.863 2.863 0 0 1-2.663-3.019 2.933 2.933 0 0 1 2.175-2.963h.013a2.476 2.476 0 0 1 2.281 2.606.312.312 0 0 0 .313.313.312.312 0 0 0 .313-.313A3.144 3.144 0 0 0 9.488 5.43a4.162 4.162 0 0 1 3.794-2.806c.657 0 1.302.175 1.869.506.006.006.013.006.019.013a2.697 2.697 0 0 1 1.119 1.813c.006.031.006.056.012.088a.315.315 0 0 0 .306.275h.037c.082-.011.157-.054.209-.119s.075-.148.066-.231a.036.036 0 0 0-.006-.025 3.26 3.26 0 0 0-1.038-2.031 2.403 2.403 0 0 1 1.131-.288 2.835 2.835 0 0 1 2.65 2.85 2.497 2.497 0 0 0-1.019.344 2.506 2.506 0 0 0-.538.394 3.239 3.239 0 0 0-.65.862.299.299 0 0 0 .04.345.31.31 0 0 0 .098.074.276.276 0 0 0 .137.037.31.31 0 0 0 .282-.168c.137-.27.324-.512.55-.713a1.91 1.91 0 0 1 .519-.356c.262-.132.55-.205.844-.213.006-.006.006-.006.013 0a2.964 2.964 0 0 1 1.969 2.9A2.863 2.863 0 0 1 19.238 12zm-.343-3.4a.315.315 0 0 0-.056-.307.27.27 0 0 0-.138-.094.322.322 0 0 0-.4.2 2.805 2.805 0 0 0-.139 1.11.008.008 0 0 1-.004.002c-.006.012-.006.019-.013.025l.019-.013c.019.367.119.726.294 1.05.026.05.066.093.114.123a.304.304 0 0 0 .305.008c.037-.018.069-.044.095-.075s.046-.067.059-.106a.31.31 0 0 0-.022-.237 2.156 2.156 0 0 1-.112-1.687zm-8.113 1.288A2.131 2.131 0 0 1 9.1 9.719a.32.32 0 0 0-.239-.026.32.32 0 0 0-.186.151.312.312 0 0 0 .131.425c.412.225.874.343 1.344.344.28 0 .559-.044.825-.131.039-.012.076-.032.107-.059s.057-.059.076-.096a.307.307 0 0 0 .017-.239.312.312 0 0 0-.393-.2zm5.369-.6a2.723 2.723 0 0 0-.494-.394 3.224 3.224 0 0 0-1.175-.463 1.535 1.535 0 0 0-.338-.037.304.304 0 0 0-.3.006h-.006a.072.072 0 0 0-.05 0 2.608 2.608 0 0 0-1 .281.311.311 0 0 0-.118.409.315.315 0 0 0 .399.147c.103-.055.212-.099.325-.131h.006c.244-.076.501-.106.756-.087.236.015.468.068.687.156.181.069.353.16.513.269a2.785 2.785 0 0 1 .937 1.068.312.312 0 0 0 .579-.045.31.31 0 0 0-.022-.237 3.31 3.31 0 0 0-.7-.944zm-2-4.613a.31.31 0 0 0-.287-.549 2.156 2.156 0 0 1-1.687.112.322.322 0 0 0-.339.088.315.315 0 0 0-.062.106.322.322 0 0 0 .2.4 3 3 0 0 0 .925.15c.436.003.865-.103 1.25-.306z" style="fill:var(--color1, #fff)"/>
    </symbol>
    <symbol id="icon-door" viewBox="0 0 24 32">
      <path fill="none" stroke="#fff" stroke-linecap="round" stroke-linejoin="round" stroke-width="1.231" d="m16.881 3.029-5.769 1.343v16.413l5.769-1.346V3.029z" style="stroke:var(--color1, #fff)"/>
      <path fill="none" stroke="#fff" stroke-linecap="round" stroke-linejoin="round" stroke-width="1.231" d="M16.881 3.029v-.016H6.913v16.41h4.199M13.115 12.391v-1.756" style="stroke:var(--color1, #fff)"/>
    </symbol>
    <symbol id="icon-dot" viewBox="0 0 32 32">
      <path fill="#ae7b3c" d="M21.333 16a5.333 5.333 0 1 1-10.666 0 5.333 5.333 0 0 1 10.666 0z" style="fill:var(--color2, #ae7b3c)"/>
      <path fill="none" stroke="#ae7b3c" stroke-width="1.778" d="M31.111 16c0 8.346-6.765 15.111-15.111 15.111S.889 24.346.889 16 7.654.889 16 .889 31.111 7.654 31.111 16z" style="stroke:var(--color2, #ae7b3c)"/>
    </symbol>
    <symbol id="icon-facebook" viewBox="0 0 15 32">
      <path fill="#ae7b3c" d="M3.89 31.352V16.641H0v-5.297h3.89V6.82C3.89 3.265 6.188 0 11.482 0c2.144 0 3.729.205 3.729.205l-.125 4.946s-1.617-.016-3.381-.016c-1.909 0-2.215.88-2.215 2.34v3.868h5.748l-.25 5.297H9.49v14.711h-5.6z" style="fill:var(--color2, #ae7b3c)"/>
    </symbol>
    <symbol id="icon-floor" viewBox="0 0 32 32">
      <path fill="#fff" d="M25.465 20.756 22.939 8.545a.422.422 0 0 0-.413-.335H9.473c-.2 0-.373.141-.413.335L6.534 20.756c-.025.124.006.253.086.352s.2.156.326.156h18.105a.42.42 0 0 0 .412-.508zm-2.193-6.44h-6.85V9.053h5.762l1.088 5.263zM9.817 9.053h5.762v5.263h-6.85l1.088-5.263zm-1.255 6.065c.053.025.112.04.175.04h6.842v5.263H7.465l1.097-5.303zm7.859 5.303v-5.263h6.842a.409.409 0 0 0 .175-.04l1.097 5.303h-8.114zm1.053-15.789c.581 0 1.053.472 1.053 1.053a.422.422 0 0 0 .842 0c0-.581.472-1.053 1.053-1.053a.422.422 0 0 0 0-.842 1.054 1.054 0 0 1-1.053-1.053.422.422 0 0 0-.842 0c0 .581-.472 1.053-1.053 1.053a.422.422 0 0 0 0 .842zm1.473-.708c.084.105.181.2.286.286-.105.084-.2.181-.286.286a1.933 1.933 0 0 0-.286-.286c.105-.084.202-.181.286-.286zm-7.368 1.55c.581 0 1.053.472 1.053 1.053a.422.422 0 0 0 .842 0c0-.581.472-1.053 1.053-1.053a.422.422 0 0 0 0-.842 1.054 1.054 0 0 1-1.053-1.053.422.422 0 0 0-.842 0c0 .581-.472 1.053-1.053 1.053a.422.422 0 0 0 0 .842zm1.474-.708c.084.105.181.2.286.286-.105.084-.2.181-.286.286a1.933 1.933 0 0 0-.286-.286c.105-.084.202-.181.286-.286z" style="fill:var(--color1, #fff)"/>
    </symbol>
    <symbol id="icon-form1" viewBox="0 0 32 32">
      <path fill="#fff" d="M0 0h32v32H0V0z" style="fill:var(--color1, #fff)"/>
    </symbol>
    <symbol id="icon-form2" viewBox="0 0 32 32">
      <path fill="none" stroke="#fff" stroke-width="4.267" d="M2.133 2.133h27.733v27.733H2.133V2.133z" style="stroke:var(--color1, #fff)"/>
    </symbol>
    <symbol id="icon-furniture" viewBox="0 0 31 32">
      <path fill="#fff" d="M23.492-36.452a.312.312 0 0 1-.312-.312v-1.515H8.819v1.515a.312.312 0 0 1-.625 0v-5.43c0-.919.747-1.666 1.665-1.666h12.279c.919 0 1.667.748 1.667 1.666v5.43c0 .172-.14.312-.312.312zM8.819-38.904H23.18v-3.29c0-.574-.467-1.042-1.042-1.042H9.86c-.574 0-1.04.467-1.04 1.042v3.29zm15.931-5.019H7.251a.312.312 0 1 1 0-.625H24.75a.313.313 0 1 1 0 .625zM-106.978-8.368a.313.313 0 0 1-.313-.313v-2.895h-3.574v2.895a.313.313 0 1 1-.624 0v-4.577h-.58a.313.313 0 0 1 0-.625h4.812l.446-4.008v-1.929a.313.313 0 1 1 .624 0v1.964l-.002.021-.476 4.282v4.872c0 .173-.14.313-.313.313zm-3.887-3.832h3.574v-1.057h-3.574v1.057zm-4.385 3.832-.028-.001h-2.071a.313.313 0 0 1 0-.625h1.786v-7.134h-5.072a.312.312 0 0 1 0-.625h10.77a.313.313 0 1 1 0 .625h-5.073v7.134h1.787a.313.313 0 1 1 0 .625h-2.072l-.028.001zm-4.074 0a.313.313 0 0 1-.312-.313v-2.895h-3.573v2.895a.313.313 0 1 1-.625 0v-4.872l-.476-4.282-.002-.022V-19.82a.313.313 0 1 1 .624 0v1.929l.446 4.008h4.811a.312.312 0 0 1 0 .625h-.58v4.577c0 .173-.14.313-.313.313zm-3.885-3.832h3.573v-1.057h-3.573v1.057zm41.703 2.388a.313.313 0 0 1-.313-.312v-.86H-89a.312.312 0 0 1-.312-.313v-5.985h-6.868v7.158a.312.312 0 0 1-.625 0v-7.158h-.944a.312.312 0 0 1-.312-.312v-.782c0-.173.14-.313.312-.313h17.5c.172 0 .312.14.312.313v.782c0 .172-.14.312-.312.312h-.944v7.158c0 .172-.14.312-.312.312zm-7.182-1.797h6.869v-2.523h-6.869v2.523zm0-3.149h6.869v-2.524h-6.869v2.524zm7.182-3.149h.944v-.157h-16.875v.157h15.931zm-3.338 5.349h-.816a.312.312 0 1 1 0-.625h.816a.312.312 0 0 1 0 .625zm0-3.15h-.816a.312.312 0 1 1 0-.625h.816a.312.312 0 0 1 0 .625zm29.588 5.896a.313.313 0 0 1-.313-.312v-4.008h-14.362v4.008a.312.312 0 0 1-.625 0v-7.158h-.944a.312.312 0 0 1-.312-.312v-.782c0-.173.14-.313.312-.313H-54c.172 0 .312.14.312.313v.782c0 .172-.14.312-.312.312h-.944v7.158c0 .172-.14.312-.312.312zm-7.182-4.946h6.869v-2.524h-6.869v2.524zm-7.493 0h6.868v-2.524h-6.868v2.524zm14.675-3.149h.944v-.157h-16.875v.157h15.931zm-3.338 2.199h-.816a.313.313 0 0 1 0-.625h.816a.312.312 0 0 1 0 .625zm-7.494-.048h-.817a.313.313 0 1 1 0-.625h.817a.312.312 0 0 1 0 .625zm33.191 10.568a.313.313 0 0 1-.313-.313v-.944h-6.582v.944a.313.313 0 1 1-.624 0v-5.9h-1.14a.312.312 0 0 1-.312-.312 1.078 1.078 0 0 1 1.083-1.064h.448l.002-6.84a3.828 3.828 0 0 1 3.835-3.695 3.826 3.826 0 0 1 3.835 3.683l.004 6.852h.448c.583 0 1.069.473 1.083 1.055v.01c0 .172-.14.312-.312.312h-1.141v5.9a.313.313 0 0 1-.313.313zm-6.895-1.881h6.582v-1.853h-6.582v1.853zm0-2.478h6.582V-11.4h-6.582v1.853zm6.895-2.478h.998a.459.459 0 0 0-.315-.127h-8.572a.456.456 0 0 0-.315.127h8.205zm-6.816-.752h6.426l-.003-6.84a3.2 3.2 0 0 0-3.21-3.071 3.202 3.202 0 0 0-3.21 3.083l-.003 6.828zm3.605 5.095h-.785a.312.312 0 1 1 0-.625h.785a.313.313 0 1 1 0 .625zm0-2.48h-.785a.312.312 0 1 1 0-.625h.785a.313.313 0 1 1 0 .625zm-2.164-5.486a.312.312 0 0 1-.221-.534l3.544-3.544a.313.313 0 0 1 .442.442l-3.544 3.544a.312.312 0 0 1-.221.092zm1.544-.218a.312.312 0 0 1-.221-.534l1.782-1.781a.313.313 0 0 1 .442.442l-1.782 1.781a.312.312 0 0 1-.221.092zm-1.325-1.326a.312.312 0 0 1-.221-.534l1.78-1.781a.313.313 0 0 1 .442.442l-1.78 1.781a.312.312 0 0 1-.221.092zm23.505 12.004a.314.314 0 0 1-.287-.437l.226-.521h-.497a.313.313 0 0 1-.313-.312v-6.679c0-.182.164-.325.34-.311h2.62v-3.673h-2.648a.312.312 0 0 1-.309-.362l.881-5.567a.312.312 0 0 1 .309-.263h4.156c.154 0 .284.112.308.263l.882 5.567c.014.09-.012.182-.071.252s-.146.11-.238.11h-.698v1.486a.313.313 0 0 1-.625 0v-1.486h-1.324v3.673h6.41a.318.318 0 0 1 .34.311v6.679c0 .173-.14.313-.313.313h-.484l.226.521a.313.313 0 0 1-.573.249l-.334-.769h-7.368l-.333.769a.313.313 0 0 1-.288.188zm8.2-1.582h.641v-2.714h-9.086v2.714h8.445zm-8.445-3.339h9.086v-2.714h-9.086v2.714zm4.597-7.637h.644l-.783-4.941h-3.622l-.782 4.942h4.543zm.474 9.933h-1.058a.313.313 0 1 1 0-.625h1.058a.313.313 0 1 1 0 .625zm0-3.342h-1.058a.313.313 0 1 1 0-.625h1.058a.313.313 0 1 1 0 .625zm33.981.658a.314.314 0 0 1-.287-.188l-.293-.674H8.332l-.291.674a.313.313 0 0 1-.574-.248l.184-.426H7.25a.312.312 0 0 1-.312-.313v-6.018c0-.179.161-.323.332-.312h8.71a.069.069 0 0 1 .02-.001c.008-.002.013 0 .02.001h8.71a.319.319 0 0 1 .332.312v6.018c0 .173-.14.313-.313.313h-.388l.184.425a.312.312 0 0 1-.287.437zm-.367-1.487h.545v-2.384h-8.124v2.384H23.892zm-15.759 0h7.553v-2.384H7.562v2.384H8.133zm8.18-3.009h8.124v-2.383h-8.124v2.383zm-8.75 0h8.124v-2.383H7.563v2.383zm13.289 2.13h-.954a.313.313 0 1 1 0-.625h.954a.313.313 0 1 1 0 .625zm-8.752 0h-.953a.312.312 0 1 1 0-.625h.954a.313.313 0 1 1 0 .625zm8.752-3.01h-.954a.313.313 0 1 1 0-.625h.954a.313.313 0 1 1 0 .625zm-8.752 0h-.953a.312.312 0 1 1 0-.625h.954a.313.313 0 1 1 0 .625zm-135.596 31.625a.313.313 0 0 1-.286-.437l.184-.425h-.401a.313.313 0 0 1-.312-.313V8.559c0-.173.14-.312.312-.312h17.5c.172 0 .312.14.312.312v6.018c0 .173-.14.312-.312.312h-.388l.184.425a.312.312 0 1 1-.573.249l-.292-.674h-15.348l-.292.674a.313.313 0 0 1-.287.189zm16.138-1.487h.546V8.873h-8.124v5.392h7.578zm-15.758 0h7.553v-2.384h-8.125v2.384H-123.116zm-.572-3.009h8.125V8.872h-8.125v2.384zm4.54 2.13h-.954a.313.313 0 1 1 0-.625h.954a.312.312 0 0 1 0 .625zm4.872-1.029a.313.313 0 0 1-.312-.313v-.954a.313.313 0 1 1 .625 0v.954c0 .173-.14.313-.313.313zm-4.872-1.981h-.954a.313.313 0 1 1 0-.625h.954a.312.312 0 0 1 0 .625zm38.033 6.661a.312.312 0 0 1-.312-.312v-.109H-96.56v.109a.312.312 0 1 1-.624 0v-.109h-.537a.313.313 0 0 1-.34-.311V7.278c0-.173.14-.313.312-.313h17.5c.172 0 .312.14.312.313l-.001.028v2.953l.001.028v6.018c0 .173-.14.312-.312.312h-.552v.109c0 .172-.14.312-.313.312zm-7.571-1.047h8.124v-2.384h-8.124v2.384zm-8.752 0h8.125v-2.384h-8.125v2.384zm8.752-3.009h8.124v-2.668l-.001-.028V7.588h-8.123v5.393zm-8.752 0h8.126V7.588h-8.126v5.393zm13.29 2.131h-.954a.312.312 0 0 1 0-.625h.954a.313.313 0 0 1 0 .625zm-8.75 0h-.954a.313.313 0 1 1 0-.625h.954a.313.313 0 0 1 0 .625zm11.722-4.039a.312.312 0 0 1-.312-.312v-.953a.313.313 0 1 1 .624 0v.953c0 .173-.14.312-.312.312zm-15.654 0a.312.312 0 0 1-.312-.312v-.953a.313.313 0 1 1 .624 0v.953c0 .173-.14.312-.312.312zm41.965 7.575a.312.312 0 0 1-.312-.312v-.111H-70.31v.111a.312.312 0 1 1-.624 0v-.111h-.537a.313.313 0 0 1-.34-.311v-3.01c0-.173.14-.312.312-.312h1.277v-.802H-71.5a.313.313 0 0 1 0-.625h7.481l.211-.684h-4.552a.313.313 0 0 1-.312-.313V5.665c0-.173.14-.312.312-.312h11.221c.172 0 .312.14.312.312v6.503c0 .173-.14.313-.312.313h-4.553l.21.684H-54a.312.312 0 0 1 0 .625h-1.277v.802H-54c.172 0 .312.14.312.312v3.009c0 .173-.14.312-.312.312h-.552v.111c0 .172-.14.312-.313.312zm-7.573-1.049h8.126v-2.384h-8.126v2.384zm-8.75 0h8.125v-2.384h-8.125v2.384zm1.59-3.008h13.696v-.802h-13.695v.802zm6.233-1.427h1.229l-.21-.684h-.808l-.211.684zm1.257-1.309h4.656V5.977h-10.596v5.878h5.939zm4.21 4.866h-.954a.312.312 0 0 1 0-.625h.954a.313.313 0 0 1 0 .625zm-8.75 0h-.954a.313.313 0 1 1 0-.625h.954a.313.313 0 0 1 0 .625zm33.065-.555a.312.312 0 0 1-.312-.312v-.638h-5.21v.638a.312.312 0 1 1-.625 0v-.638h-5.206v.631a.312.312 0 1 1-.624 0V8.148c0-.173.14-.312.312-.312h17.499c.173 0 .312.14.312.312v7.698a.313.313 0 1 1-.625 0v-.63h-5.208v.638c0 .173-.14.312-.313.312zm.312-1.576h5.208v-4.235h-5.208v4.235zm-5.835 0h5.21V9.418h-5.21v5.172zm-5.831 0h5.206v-4.235h-5.206v4.235zm11.666-4.86h5.208V8.459h-5.208V9.73zm-11.666 0h5.206V8.459h-5.206V9.73zm5.831-.937h5.21v-.334h-5.21v.334zm6.222 4.3a.313.313 0 0 1-.313-.312v-.616a.312.312 0 1 1 .625 0v.616c0 .173-.14.312-.312.312zm-7.234 0a.312.312 0 0 1-.312-.312v-.616a.312.312 0 1 1 .625 0v.616c0 .173-.14.312-.313.312zm9.77-3.756h-.636a.313.313 0 1 1 0-.625h.636a.312.312 0 1 1 0 .625zm-11.668 0h-.634a.312.312 0 1 1 0-.625h.634a.312.312 0 1 1 0 .625zM-6.01 21.062h-8.481a.313.313 0 0 1-.313-.313V3.25c0-.173.14-.313.313-.313h8.482c.173 0 .312.14.312.313l-.001.028v5.779l.001.028-.001.028v5.777l.001.028-.001.028v5.804c0 .173-.14.313-.312.313zm-8.168-.625h7.856V15.23h-7.856v5.207zm0-5.833h7.856V9.397h-7.856v5.207zm0-5.834h7.856V3.563h-7.856V8.77zm.578 9.839a.312.312 0 0 1-.312-.313v-.924a.313.313 0 1 1 .625 0v.924c0 .173-.14.313-.313.313zm0-5.834a.312.312 0 0 1-.312-.312v-.923a.313.313 0 1 1 .625 0v.923c0 .173-.14.312-.313.312zm0-5.834a.312.312 0 0 1-.312-.313v-.923a.312.312 0 1 1 .625 0v.923c0 .173-.14.313-.313.313zm38.082 14.121H7.519a.313.313 0 0 1-.313-.313V3.25c0-.173.14-.313.313-.313h16.963c.173 0 .312.14.312.313V20.749c0 .173-.14.313-.312.313zm-8.169-.625h7.856V3.563h-7.856v16.874zm-8.482 0h7.856v-5.208H7.831v5.208zm0-5.833h7.856V3.563H7.831v11.041zm7.181 4.005a.313.313 0 0 1-.313-.313v-.924a.313.313 0 1 1 .625 0v.924c0 .173-.14.313-.312.313zm1.975-5.834a.313.313 0 0 1-.313-.312v-.923a.313.313 0 1 1 .625 0v.923c0 .173-.14.312-.312.312zm-1.975 0a.313.313 0 0 1-.313-.312v-.923a.313.313 0 1 1 .625 0v.923c0 .173-.14.312-.312.312zm-121.78 34.537h-16.964a.312.312 0 0 1-.312-.312V29.501c0-.173.14-.312.312-.312h16.964c.172 0 .312.14.312.312V47c0 .173-.14.312-.312.312zm-8.168-.625h7.856V29.813h-7.856v16.874zm-8.483 0h7.856V29.813h-7.856v16.874zm12.41-2.313a2.659 2.659 0 0 1-2.656-2.656v-6.935c0-1.465 1.192-2.656 2.656-2.656s2.657 1.192 2.657 2.656l-.001 6.935a2.66 2.66 0 0 1-2.656 2.656zm0-11.622c-1.12 0-2.032.911-2.032 2.031v6.934c0 1.12.912 2.031 2.032 2.031s2.031-.911 2.031-2.031l.001-6.934c0-1.12-.912-2.031-2.032-2.031zm-3.253 6.273a.313.313 0 0 1-.313-.312v-.923a.313.313 0 1 1 .625 0v.923c0 .173-.14.312-.312.312zm-1.975 0a.312.312 0 0 1-.312-.312v-.923a.313.313 0 1 1 .624 0v.923c0 .173-.14.312-.312.312zm62.548-5.356a.313.313 0 1 0-.624 0v3.42h-.022a1.29 1.29 0 0 0-1.287-1.237h-1.432a1.29 1.29 0 0 0-1.286 1.237h-11.512c-.515 0-.984.2-1.334.526v-1.471a.312.312 0 1 0-.625 0l-.001 6.233c0 .167.131.303.296.312v.143a.312.312 0 1 0 .624 0v-.143h16.283v.143a.312.312 0 1 0 .625 0v-.143a.312.312 0 0 0 .296-.312l-.001-8.707zm-3.365 2.808h1.432c.348 0 .635.268.665.608h-2.761a.668.668 0 0 1 .664-.608zm-12.798 1.236h15.538v1.022h-16.837a1.337 1.337 0 0 1 1.299-1.022zm-1.336 4.351v-2.703h16.874l.001 2.703h-16.875zm43.749-1.899a.313.313 0 0 0-.313-.313h-6.874v-2.888a.312.312 0 0 0-.313-.312h-3.125a.312.312 0 0 0-.312.312v2.888h-1.432c.176-.554-.356-2.894-.191-3.338.036-.096.022-.203-.036-.288s-.154-.134-.257-.134h-.421v-1.067h1.667c.091 0 .177-.04.237-.108s.086-.16.072-.25l-.59-3.989a.312.312 0 0 0-.309-.267h-2.78a.312.312 0 0 0-.309.267l-.589 3.989a.312.312 0 0 0 .309.358h1.666v1.067h-.421a.311.311 0 0 0-.293.422c.166.444-.366 2.784-.19 3.338h-3.008a.312.312 0 0 0-.312.313v5.156c0 .167.13.303.295.312v.144a.312.312 0 1 0 .625 0v-.143h16.283v.143a.312.312 0 1 0 .625 0v-.143a.312.312 0 0 0 .297-.312l-.001-5.156zm-10.312-2.888h2.5v2.575h-2.5v-2.575zm-4.89-2.877.496-3.364h2.24l.498 3.364h-3.234zm1.277 2.317h.678c-.061.496.447 2.728.197 3.135h-1.071c-.25-.406.258-2.638.196-3.135zm4.55 8.291h-8.123v-4.531h8.123v4.531zm.625 0v-4.531h8.125l.001 4.531h-8.127z" style="fill:var(--color1, #fff)"/>
    </symbol>
    <symbol id="icon-illumination" viewBox="0 0 25 32">
      <path fill="#fff" d="M18.373 15.634c.077 0 .15-.032.204-.089s.085-.134.085-.215c0-3.948-2.361-6.534-6.041-6.662V2.304c0-.081-.03-.158-.085-.215S12.408 2 12.332 2c-.077 0-.15.032-.204.089s-.085.134-.085.215v6.364C8.361 8.796 6 11.382 6 15.33c0 .081.03.158.085.215s.128.089.204.089h3.761c.084.579.358 1.109.774 1.497s.95.609 1.505.625c.556-.016 1.089-.237 1.507-.625s.692-.918.775-1.497h3.761zM12.33 9.27c2.717 0 5.616 1.52 5.749 5.756H6.578c.137-4.236 3.036-5.756 5.753-5.756zm0 7.878c-.403-.016-.788-.174-1.096-.449s-.518-.65-.599-1.065h3.392c-.081.416-.292.791-.6 1.066s-.694.432-1.097.448zm6.356 2.185-1.791-1.439c-.061-.049-.138-.07-.214-.059s-.145.053-.191.117a.314.314 0 0 0 .055.426l1.791 1.439a.277.277 0 0 0 .321.02.305.305 0 0 0 .141-.305.308.308 0 0 0-.112-.201zM8.234 17.869l-1.741 1.504a.307.307 0 0 0-.134.21.312.312 0 0 0 .16.324.277.277 0 0 0 .241.005.283.283 0 0 0 .1-.076l1.743-1.502a.3.3 0 0 0 .11-.206.324.324 0 0 0-.064-.227.295.295 0 0 0-.199-.11.278.278 0 0 0-.214.074l-.002.006zm4.18 1.401c-.077 0-.15.032-.204.089s-.085.134-.085.215v2.122c0 .081.03.158.085.215s.128.089.204.089c.077 0 .15-.032.204-.089s.085-.134.085-.215v-2.122c0-.081-.03-.158-.085-.215s-.128-.089-.204-.089z" style="fill:var(--color1, #fff)"/>
    </symbol>
    <symbol id="icon-instagram-alt" viewBox="0 0 32 32">
      <path fill="#ae7b3c" d="M27.929 11.073a8.701 8.701 0 0 0-.559-2.955 6.135 6.135 0 0 0-3.51-3.511 8.805 8.805 0 0 0-2.915-.56c-1.283-.057-1.689-.073-4.945-.073s-3.673 0-4.947.073a8.814 8.814 0 0 0-2.913.56 6.149 6.149 0 0 0-3.511 3.511 8.737 8.737 0 0 0-.559 2.913c-.057 1.284-.075 1.691-.075 4.947s0 3.672.075 4.947a8.79 8.79 0 0 0 .559 2.916 6.138 6.138 0 0 0 3.512 3.509 8.79 8.79 0 0 0 2.913.6c1.284.057 1.691.075 4.947.075s3.673 0 4.947-.075a8.804 8.804 0 0 0 2.915-.559c.797-.309 1.521-.781 2.125-1.386s1.076-1.328 1.386-2.125a8.77 8.77 0 0 0 .559-2.916c.057-1.283.075-1.689.075-4.947-.003-3.256-.003-3.669-.077-4.945zM15.992 22.136c-3.405 0-6.164-2.759-6.164-6.164a6.163 6.163 0 1 1 12.328 0 6.164 6.164 0 0 1-6.164 6.164zm6.409-11.119a1.439 1.439 0 0 1-1.437-1.437 1.439 1.439 0 0 1 .886-1.327 1.439 1.439 0 0 1 1.986 1.327c0 .795-.643 1.437-1.436 1.437z" style="fill:var(--color2, #ae7b3c)"/>
      <path fill="#ae7b3c" d="M15.992 19.976a4.004 4.004 0 1 0 0-8.009 4.004 4.004 0 0 0 0 8.009z" style="fill:var(--color2, #ae7b3c)"/>
    </symbol>
    <symbol id="icon-letter" viewBox="0 0 32 32">
      <path fill="#fff" d="M28.5 8.5c.167.167.333.381.5.643h-8.428V.714c.262.167.476.333.643.5L28.501 8.5zM20 11.429h9.714v18.857c0 .476-.167.881-.5 1.214s-.738.5-1.214.5H4c-.476 0-.881-.167-1.214-.5s-.5-.738-.5-1.214V1.715c0-.476.167-.881.5-1.214s.738-.5 1.214-.5h14.286v9.714c0 .476.167.881.5 1.214s.738.5 1.214.5zm2.857 13.142v-1.143c0-.167-.054-.304-.161-.411s-.244-.161-.411-.161H9.714c-.167 0-.304.054-.411.161s-.161.244-.161.411v1.143c0 .167.054.304.161.411s.244.161.411.161h12.571c.167 0 .304-.054.411-.161s.161-.244.161-.411zm0-4.571v-1.143a.553.553 0 0 0-.572-.572H9.714a.553.553 0 0 0-.572.572V20c0 .167.054.304.161.411s.244.161.411.161h12.571a.553.553 0 0 0 .572-.572zm0-4.571v-1.143c0-.167-.054-.304-.161-.411s-.244-.161-.411-.161H9.714c-.167 0-.304.054-.411.161s-.161.244-.161.411v1.143c0 .167.054.304.161.411s.244.161.411.161h12.571c.167 0 .304-.054.411-.161s.161-.244.161-.411z" style="fill:var(--color1, #fff)"/>
    </symbol>
    <symbol id="icon-logo" viewBox="0 0 73 32">
      <path fill="#3d4a39" d="M63.596 1.167c2.449 0 4.548.875 6.301 2.618 1.753 1.747 2.627 3.841 2.627 6.292 0 2.455-.874 4.546-2.627 6.277a10.12 10.12 0 0 1-.732.656c-4.125-2.131-8.482-3.15-8.572-6.93.759 1.517 1.197 2.353 2.83 3.17.13-.195.269-.43.408-.614.701-.931.848-.572 2.421-.917 1.322-.29 1.622-.875 1.716-2.35-1.201-1.026-.855-.318-1.596-1.989-.455-1.026-.838-1.111-2.045-1.368l.123-2.029c-2.711.64-4.603 2.919-5.553 5.441-1.186 3.15-.823 5.276-.228 8.061a9.472 9.472 0 0 1-1.377-1.13c-1.742-1.739-2.616-3.83-2.616-6.277 0-2.444.874-4.539 2.616-6.292 1.753-1.743 3.852-2.618 6.304-2.618l.001-.001z" style="fill:var(--color3, #3d4a39)"/>
      <path fill="#3d4a39" d="m65.561 5.498.155-.372a5.538 5.538 0 0 1 1.794 1.217l-.001.001a5.542 5.542 0 0 1 1.231 1.795c.274.654.41 1.36.41 2.118 0 .765-.137 1.475-.412 2.128a5.424 5.424 0 0 1-1.231 1.782 5.593 5.593 0 0 1-1.795 1.208c-.654.27-1.36.404-2.116.404-.768 0-1.48-.134-2.137-.403s-1.253-.672-1.791-1.21l-.001.001c-.542-.54-.949-1.136-1.221-1.79s-.409-1.36-.409-2.12c0-.754.136-1.458.408-2.112a5.624 5.624 0 0 1 1.221-1.8 5.402 5.402 0 0 1 1.786-1.218l.155.372a5.02 5.02 0 0 0-1.653 1.128A5.222 5.222 0 0 0 58.819 8.3a5.044 5.044 0 0 0-.377 1.957c0 .708.126 1.363.377 1.966s.63 1.156 1.134 1.659v.001c.5.5 1.053.874 1.658 1.122s1.266.372 1.983.372c.705 0 1.359-.124 1.963-.373a5.163 5.163 0 0 0 1.665-1.122l.001-.001a5.027 5.027 0 0 0 1.141-1.65 5.058 5.058 0 0 0 .379-1.974c0-.706-.126-1.361-.379-1.964s-.634-1.159-1.143-1.665h-.001a5.14 5.14 0 0 0-1.662-1.13h.001zm-1.965-4.331c1.251 0 2.413.224 3.489.671 1.075.447 2.059 1.116 2.954 2.006h.001c.895.891 1.566 1.874 2.015 2.947s.672 2.236.672 3.487c0 1.253-.224 2.416-.672 3.487s-1.119 2.048-2.015 2.933c-.892.881-1.875 1.541-2.95 1.982s-2.24.662-3.494.662c-1.259-.004-2.427-.226-3.502-.667s-2.057-1.099-2.944-1.976h-.001c-.89-.888-1.558-1.868-2.005-2.938s-.671-2.232-.671-3.482c0-1.248.224-2.408.671-3.482.446-1.072 1.115-2.056 2.005-2.952l.001-.001c.895-.89 1.88-1.559 2.955-2.006s2.239-.671 3.492-.671l-.001-.001zm3.334 1.042c-1.025-.426-2.136-.64-3.334-.64-1.2 0-2.312.213-3.337.64s-1.967 1.066-2.824 1.919c-.851.858-1.491 1.798-1.917 2.823-.426 1.023-.639 2.132-.639 3.328 0 1.197.213 2.306.639 3.327.426 1.022 1.065 1.958 1.917 2.808.85.839 1.787 1.469 2.813 1.889 1.027.421 2.144.633 3.349.637v-.001c1.202 0 2.316-.21 3.34-.63 1.025-.42 1.964-1.052 2.818-1.895.857-.847 1.499-1.781 1.927-2.802s.641-2.132.641-3.333c0-1.199-.214-2.31-.641-3.333s-1.07-1.962-1.927-2.817l.001-.001c-.857-.853-1.799-1.492-2.824-1.919v.001z" style="fill:var(--color3, #3d4a39)"/>
      <path fill="#ddd5c1" d="m61.59 5.454.018.044a5.645 5.645 0 0 0-.137.059c-1.158 1.026-2.024 2.406-2.574 3.867-.177.469-.319.915-.431 1.345.047.514.165.999.354 1.453.252.603.63 1.156 1.134 1.659v.001c.5.5 1.053.874 1.658 1.122s1.266.372 1.983.372c.564 0 1.096-.079 1.596-.239-2.55-1.222-4.539-2.515-4.599-5.057.759 1.517 1.197 2.353 2.83 3.17.13-.195.269-.43.408-.613.701-.931.848-.573 2.421-.917 1.322-.29 1.622-.875 1.716-2.35-1.201-1.026-.855-.318-1.596-1.989-.455-1.026-.837-1.111-2.045-1.368l.123-2.029a6.818 6.818 0 0 0-2.86 1.472l.001-.001z" style="fill:var(--color4, #ddd5c1)"/>
      <path fill="#ae7b3c" d="M65.705 15.378a5.491 5.491 0 0 1-2.108.401c-.768 0-1.48-.134-2.137-.403s-1.253-.672-1.791-1.21l-.001.001a5.5 5.5 0 0 1-1.221-1.79 5.272 5.272 0 0 1-.201-.574c-.318 1.961-.016 3.629.412 5.633.504.35 1.034.64 1.589.867 1.027.421 2.144.633 3.349.637v-.001c1.202 0 2.316-.21 3.34-.63a8.409 8.409 0 0 0 2.185-1.322c-1.155-.594-2.327-1.103-3.417-1.61l.001-.001z" style="fill:var(--color2, #ae7b3c)"/>
      <path fill="#3d4a39" d="M44.918 1.2c2.441 0 4.544.864 6.312 2.595l-2.519 2.51c-1.068-1.049-2.326-1.576-3.77-1.576-1.477 0-2.736.527-3.774 1.576-1.046 1.042-1.571 2.299-1.571 3.771 0 1.468.525 2.726 1.571 3.767 1.031 1.042 2.289 1.565 3.774 1.565a5.165 5.165 0 0 0 2.974-.912 5.23 5.23 0 0 0 1.846-2.151h-5.017V8.989h9.029c.231 2.988-.621 5.444-2.564 7.364-1.753 1.732-3.852 2.595-6.3 2.595-2.471 0-4.57-.864-6.293-2.595C36.874 14.629 36 12.538 36 10.076c0-2.444.874-4.539 2.616-6.292 1.731-1.743 3.829-2.618 6.293-2.618l.011.034h-.001z" style="fill:var(--color3, #3d4a39)"/>
      <path fill="#3d4a39" d="M45.063.999a9.035 9.035 0 0 1 3.34.663c1.077.443 2.066 1.106 2.968 1.99l.146.142-2.805 2.795-.143-.14a5.333 5.333 0 0 0-1.681-1.139 4.999 4.999 0 0 0-1.947-.379c-.712 0-1.369.126-1.973.379s-1.157.632-1.657 1.137l-.001.002c-.505.503-.883 1.056-1.134 1.66s-.377 1.259-.377 1.968c0 .708.126 1.363.377 1.966s.63 1.156 1.134 1.659l.001.002a5.021 5.021 0 0 0 1.651 1.129c.603.25 1.263.375 1.979.375.526 0 1.026-.073 1.502-.219s.928-.365 1.358-.658h.001a5.01 5.01 0 0 0 1.631-1.783h-4.891V8.789h9.419l.014.187c.117 1.521-.042 2.908-.478 4.163-.438 1.257-1.152 2.377-2.145 3.359-.895.884-1.88 1.548-2.955 1.99-1.076.443-2.238.664-3.488.664-1.262 0-2.431-.221-3.505-.665s-2.051-1.106-2.931-1.99c-.89-.881-1.558-1.856-2.005-2.927s-.671-2.236-.671-3.493c0-1.248.224-2.408.671-3.482.446-1.072 1.115-2.056 2.005-2.952.885-.891 1.864-1.561 2.939-2.007s2.24-.671 3.498-.671h.145l.011.035v.001zm3.187 1.035c-1.026-.422-2.137-.633-3.332-.633h-.145l-.011-.033c-1.149.017-2.215.229-3.198.638-1.025.427-1.961 1.066-2.808 1.919-.852.858-1.491 1.798-1.918 2.823-.426 1.023-.639 2.132-.639 3.327 0 1.205.213 2.318.639 3.338.426 1.022 1.065 1.954 1.917 2.797h.001c.842.847 1.776 1.481 2.798 1.902 1.024.422 2.142.633 3.352.633 1.199 0 2.31-.211 3.335-.633s1.966-1.057 2.824-1.904c.949-.939 1.632-2.007 2.049-3.204.4-1.149.556-2.421.469-3.815h-8.637v2.952h5.132l-.134.287a5.422 5.422 0 0 1-1.915 2.232v.001c-.463.315-.952.552-1.467.71s-1.056.237-1.62.237c-.768 0-1.48-.136-2.134-.407s-1.248-.677-1.783-1.217l-.001.001c-.542-.54-.949-1.136-1.221-1.79s-.409-1.36-.409-2.12c0-.762.136-1.469.409-2.123s.68-1.251 1.221-1.79l.001.001a5.46 5.46 0 0 1 1.787-1.225 5.456 5.456 0 0 1 2.13-.41c.749 0 1.45.137 2.104.41a5.66 5.66 0 0 1 1.663 1.086l2.235-2.227a8.798 8.798 0 0 0-2.692-1.764h.001zM30.929 10.989V1.266h3.542V19.18L23.872 9.12v9.723H20.34V.941L30.928 10.99z" style="fill:var(--color3, #3d4a39)"/>
      <path fill="#3d4a39" d="M30.523 10.049V.863h4.353V20.12L24.277 10.06v9.186h-4.342V0l10.588 10.049zm.811-8.379v10.259L20.746 1.88v16.558h2.722V8.179l10.599 10.06V1.669h-2.733zM14.628 1.307h3.532V18.82h-3.532V1.307z" style="fill:var(--color3, #3d4a39)"/>
      <path fill="#3d4a39" d="M14.628 1.105h3.734v17.916h-3.937V1.105h.203zm3.329.404H14.83v17.109h3.127V1.509zM6.277 9.639c.64 0 1.187-.241 1.645-.727a2.466 2.466 0 0 0 .677-1.739c0-.638-.234-1.197-.7-1.683-.48-.463-1.206-.693-2.181-.693H3.734v4.831h1.362v.011l1.18-.001zM.203 1.307h5.735c1.861 0 3.394.593 4.6 1.783.592.586 1.009 1.138 1.254 1.661.298.638.447 1.409.447 2.314v.456c0 1.179-.369 2.292-1.109 3.337a4.617 4.617 0 0 1-2.106 1.617l4.09 6.345H8.797l-5.05-7.746v7.746H.204V1.307H.203z" style="fill:var(--color3, #3d4a39)"/>
      <path fill="#3d4a39" d="M6.277 9.438c.292 0 .562-.054.809-.164.248-.11.477-.276.687-.497.208-.225.364-.47.468-.735s.156-.554.156-.868c0-.293-.054-.566-.159-.822a2.367 2.367 0 0 0-.482-.721 2.071 2.071 0 0 0-.822-.47c-.342-.109-.747-.163-1.215-.163H3.938v4.428H5.3v.011h.978zm.972.204a2.37 2.37 0 0 1-.972.198H4.895v-.011H3.533V4.594h2.186c.507 0 .952.061 1.337.183.394.125.722.314.985.568l.005.005c.25.261.438.543.565.846.127.306.191.631.191.976 0 .361-.062.699-.184 1.013s-.305.601-.547.863l-.002.002a2.53 2.53 0 0 1-.82.592h.001zM.203 1.105h5.735c.955 0 1.827.153 2.618.46a6.168 6.168 0 0 1 2.124 1.383c.302.299.56.591.776.877.217.288.39.568.519.842l.001.001c.156.334.272.702.35 1.103.077.399.116.831.116 1.295v.456c0 .611-.096 1.205-.287 1.782a6.347 6.347 0 0 1-.859 1.671l-.002.002a4.763 4.763 0 0 1-1.97 1.592l4.16 6.453H8.688L3.95 11.754v7.268H.002V1.106h.203zm5.735.404H.405v17.109h3.138v-8.224l5.362 8.224h3.838l-4.023-6.24.23-.09a4.395 4.395 0 0 0 2.015-1.544h-.001a5.915 5.915 0 0 0 .805-1.566 5.214 5.214 0 0 0 .266-1.655v-.456c0-.441-.036-.847-.108-1.219a4.298 4.298 0 0 0-.32-1.01h.001a4.422 4.422 0 0 0-.475-.77 7.738 7.738 0 0 0-.738-.832A5.767 5.767 0 0 0 8.41 1.943c-.742-.287-1.566-.431-2.473-.431h-.001z" style="fill:var(--color3, #3d4a39)"/>
      <path fill="#ae7b3c" d="M3.78 30.527c.372 0 .704-.062.996-.187s.541-.3.743-.524c.203-.224.357-.493.463-.805s.159-.655.159-1.03v-5.437H7.35v5.437c0 .516-.081.994-.246 1.436s-.401.822-.708 1.144c-.307.323-.683.576-1.125.759s-.94.275-1.491.275-1.048-.092-1.491-.275c-.443-.183-.819-.437-1.127-.759s-.545-.703-.71-1.144a4.067 4.067 0 0 1-.248-1.436v-5.437h1.209v5.43c0 .374.054.718.161 1.03s.261.581.463.805c.203.224.451.399.745.526s.627.191.998.191h.001zM13.948 26.463h.458c.159 0 .286-.021.382-.06s.184-.106.263-.202l2.988-3.371c.084-.108.171-.183.263-.224s.204-.062.338-.062h1.027l-3.42 3.851c-.084.1-.163.181-.24.245s-.161.118-.248.16c.113.037.215.092.307.164s.181.168.269.285l3.571 4.238h-1.053c-.079 0-.146-.006-.203-.017s-.106-.027-.148-.05c-.042-.023-.077-.05-.109-.081s-.063-.067-.092-.108l-3.095-3.551c-.084-.104-.173-.179-.269-.223s-.242-.064-.438-.064h-.551v4.095h-1.209v-8.944h1.209v3.92h-.001zM26.734 26.876c.351 0 .662-.044.931-.129s.495-.206.676-.362c.181-.156.317-.341.409-.558s.138-.456.138-.718c0-.533-.176-.934-.526-1.204s-.877-.406-1.579-.406h-1.328v3.377h1.278zm4.147 4.612h-1.078c-.222 0-.384-.085-.489-.256l-2.33-3.196c-.071-.1-.146-.173-.227-.216s-.209-.064-.38-.064h-.921v3.733h-1.209v-8.944h2.537c.568 0 1.059.056 1.472.171s.756.281 1.025.497c.269.216.468.477.597.782s.194.649.194 1.028c0 .316-.05.612-.15.886s-.245.52-.435.738c-.19.219-.422.406-.695.56s-.585.27-.932.35c.155.087.288.214.401.381l2.619 3.551zM39.651 28.168l-1.41-3.639a8.313 8.313 0 0 1-.264-.837 6.942 6.942 0 0 1-.269.842l-1.41 3.632 3.352.001zm2.531 3.32h-.94c-.109 0-.196-.027-.263-.081s-.117-.123-.15-.206l-.84-2.16h-4.028l-.84 2.16c-.025.075-.073.141-.144.2s-.159.087-.263.087h-.94l3.59-8.944h1.228l3.59 8.944zM47.369 31.488h-1.215v-8.945h1.215v8.945zM60.143 22.544v8.944h-.608c-.096 0-.175-.017-.24-.05s-.129-.09-.192-.169l-5.193-6.741c.009.104.014.206.019.306s.006.194.006.281v6.373H52.87v-8.944h.627c.054 0 .1.002.138.009s.071.017.1.031c.029.014.058.035.088.062s.06.062.094.104l5.193 6.735-.021-.316a4.237 4.237 0 0 1-.011-.289v-6.336h1.065zM69.991 28.168l-1.409-3.639a8.313 8.313 0 0 1-.264-.837 6.942 6.942 0 0 1-.269.842l-1.41 3.632 3.351.001zm2.531 3.32h-.94c-.109 0-.196-.027-.263-.081s-.117-.123-.15-.206l-.84-2.16h-4.028l-.84 2.16c-.025.075-.073.141-.144.2s-.159.087-.263.087h-.94l3.59-8.944h1.228l3.59 8.944z" style="fill:var(--color2, #ae7b3c)"/>
    </symbol>
    <symbol id="icon-phone" viewBox="0 0 32 32">
      <path fill="#3d4a39" d="M21.334 1.333H10.667c-2.207 0-4 1.793-4 4v21.333c0 2.207 1.793 4 4 4h10.667c2.207 0 4-1.793 4-4V5.333c0-2.207-1.793-4-4-4zM18.667 28h-5.333v-1.333h5.333V28zM23 24H9V5.333h14V24z" style="fill:var(--color3, #3d4a39)"/>
    </symbol>
  </defs>
</svg>